# xmcd CD database file
#
# Track frame offsets:
#	150
#	19172
#	35730
#	50160
#
# Disc length: 866 seconds
#
# Revision: 4
# Processed by: cddbd v1.5.1PL0 Copyright (c) Steve Scherf et al.
# Submitted via: CDex 1.51
#
DISCID=33036004
DTITLE=Eve 6 - Here's To The Night
DYEAR=2001
DGENRE=Slow Rock
TTITLE0=Here's To The Night
TTITLE1=Inside Out
TTITLE2=Tounge Tied
TTITLE3=Waterfalls
EXTD=YEAR: 2001
EXTT0=
EXTT1=
EXTT2=
EXTT3=
PLAYORDER=
